<svg width="80" height="80"><g fill="#000" fill-rule="nonzero"><path d="M76.139 30.691l-8.095-1.175c-.276-.762-.539-1.506-.864-2.219l4.987-6.622c1.406-1.882 1.123-4.653-.673-6.448l-5.846-5.854c-1.006-1.007-2.358-1.578-3.715-1.578-1.006 0-1.947.32-2.73.904l-6.615 4.97c-.729-.337-1.472-.605-2.22-.883l-1.179-7.984C48.85 1.447 46.68 0 44.141 0h-8.28c-2.539 0-4.709 1.447-5.048 3.803l-1.18 7.96c-.748.279-1.495.551-2.226.892l-6.611-4.96a4.535 4.535 0 00-2.731-.903c-1.359 0-2.716.571-3.722 1.58l-5.856 5.852c-1.799 1.8-2.1 4.572-.693 6.452l4.94 6.617a29.699 29.699 0 00-.941 2.225l-7.928 1.175C1.567 31.023 0 33.147 0 35.741v8.276c0 2.594 1.565 4.719 3.862 5.051l8.097 1.176c.276.763.538 1.507.863 2.219l-4.987 6.622c-1.407 1.883-1.124 4.654.672 6.449l5.846 5.854c1.005 1.008 2.356 1.582 3.713 1.582a4.537 4.537 0 002.733-.896l6.614-4.954c.728.337 1.473.635 2.221.913l1.18 8.043C31.152 78.432 33.322 80 35.861 80h8.28c2.539 0 4.709-1.566 5.049-3.924l1.18-8.079c.742-.276 1.488-.548 2.227-.892l6.611 4.959a4.524 4.524 0 002.73.903c1.358 0 2.717-.571 3.724-1.579l5.854-5.853c1.799-1.8 2.1-4.57.694-6.453l-4.94-6.615c.34-.733.666-1.479.941-2.225l7.93-1.175C78.436 48.736 80 46.611 80 44.02v-8.277c0-2.596-1.564-4.72-3.861-5.052zM63.882 47.236a24.908 24.908 0 01-1.796 4.324l-.749 1.407 6.683 8.925c-.017.025-.037.056-.068.086l-5.854 5.856a.45.45 0 01-.08.067l-8.929-6.666-1.407.75a24.886 24.886 0 01-4.326 1.82l-1.523.488-1.597 11.387c-.025.008-.056.32-.095.32h-8.28c-.036 0-.067-.313-.093-.318l-1.596-11.3-1.526-.563c-1.474-.451-2.928-1.086-4.324-1.824l-1.409-.764-8.941 6.664a.579.579 0 01-.066-.06l-5.852-5.856a.589.589 0 01-.065-.076l6.692-8.932-.76-1.412a24.394 24.394 0 01-1.791-4.324l-.514-1.521L4.423 44.14c-.004-.036-.423-.077-.423-.12v-8.277c0-.045.419-.085.424-.12l11.112-1.575.526-1.521c.456-1.482 1.09-2.938 1.825-4.325l.762-1.408-6.674-8.926a.543.543 0 01.072-.085l5.854-5.854a.555.555 0 01.083-.066l8.929 6.671 1.409-.744a24.809 24.809 0 014.324-1.804l1.524-.457L35.765 4.2c.025-.007.058-.2.096-.2h8.28c.037 0 .068.191.094.198l1.597 11.214 1.524.528c1.486.457 2.94 1.092 4.324 1.827l1.409.761 8.94-6.665a.7.7 0 01.066.061l5.85 5.854a.527.527 0 01.066.078l-6.689 8.932.758 1.411a24.894 24.894 0 011.791 4.325l.516 1.521 11.189 1.575c.005.036.424.076.424.121v8.276c0 .047-.419.086-.424.121l-11.111 1.574-.583 1.524z"/><path d="M40.001 56.971c-9.61 0-17.428-7.82-17.428-17.43s7.818-17.429 17.428-17.429c9.608 0 17.429 7.818 17.429 17.429 0 9.609-7.821 17.43-17.429 17.43zm0-30.784c-7.363 0-13.354 5.991-13.354 13.354 0 7.363 5.991 13.354 13.354 13.354 7.362 0 13.354-5.988 13.354-13.354-.001-7.363-5.992-13.354-13.354-13.354z"/></g></svg>