<?xml version="1.0" encoding="UTF-8"?>
<svg width="132px" height="132px" viewBox="0 0 132 132" version="1.1" xmlns="http://www.w3.org/2000/svg" xmlns:xlink="http://www.w3.org/1999/xlink">
    <g stroke="none" stroke-width="1" fill="none" fill-rule="evenodd">
        <g id="icon-hold" fill-rule="nonzero">
            <g id="if_icon-pause_211871" fill="#6A6E7C">
                <circle id="Oval" cx="66" cy="66" r="66"></circle>
            </g>
            <g id="if_icon-pause_211871" transform="translate(48.000000, 40.000000)" fill="#F5F5F5">
                <path d="M13.0769231,51.3161457 L13.0769231,1.67005208 C13.0769231,0.7453125 12.3413462,0 11.4150641,0 L1.66185898,0 C0.735576923,0 0,0.7453125 0,1.67005208 L0,51.3161457 C0,52.2408855 0.735576923,53 1.66185898,53 L11.4150641,53 C12.3413462,53 13.0769231,52.2546875 13.0769231,51.3161457 Z" id="Shape"></path>
                <path d="M32.3381409,0 L22.5849359,0 C21.6722756,0 20.9230769,0.7453125 20.9230769,1.67005208 L20.9230769,51.3161457 C20.9230769,52.2408855 21.6586538,53 22.5849359,53 L32.3381409,53 C33.2508014,53 34,52.2546875 34,51.3161457 L34,1.67005208 C34,0.7453125 33.2644231,0 32.3381409,0 Z" id="Shape"></path>
            </g>
        </g>
    </g>
</svg>